<?xml version="1.0" encoding="utf-8"?>
<!-- Generator: Adobe Illustrator 14.0.0, SVG Export Plug-In . SVG Version: 6.00 Build 43363)  -->
<!DOCTYPE svg PUBLIC "-//W3C//DTD SVG 1.1//EN" "http://www.w3.org/Graphics/SVG/1.1/DTD/svg11.dtd">
<svg version="1.1" id="Layer_1" xmlns="http://www.w3.org/2000/svg" xmlns:xlink="http://www.w3.org/1999/xlink" x="0px" y="0px"
	 width="369px" height="370px" viewBox="0 0 369 370" enable-background="new 0 0 369 370" xml:space="preserve">
<rect x="0.261" y="0.775" fill="#0073FF" width="368.504" height="368.504"/>
<path fill="#FFFFFF" d="M149.642,153.31v1.128c-8.58,0.904-14.695,8.007-20.262,13.798l-6.414,6.561l15.44,17.186
	c7.277,7.438,10.328,11.451,16.453,11.719l-0.02,1.15c-12.611,1.539-15.718-1.781-22.791-9.531l-15.349-16.701l11.703-12.488
	c7.9-8.879,6.793-11.166,1.752-11.693v-1.128H149.642 M115.652,192.182c0.226,7.75,0.301,10.009,10.008,11.211v1.13H99.703v-1.13
	c9.027-1.202,9.104-3.461,9.329-11.211v-26.485c-0.225-7.75-0.301-10.006-9.329-11.211v-1.127h23.925v1.127
	c-7.675,1.205-7.75,3.461-7.976,11.211V192.182z"/>
<path fill="#FFFFFF" d="M203.24,153.279l0.898,13.817l-1.055,0.226c-2.631-9.33-6.769-11.707-15.42-11.707h-4.516v34.762
	c0,9.328,0.451,11.813,10.532,13.016v1.13h-27.684v-1.13c10.08-1.202,10.531-3.688,10.531-13.016v-34.762h-4.514
	c-8.652,0-12.791,2.377-15.424,11.707l-1.052-0.226l0.874-13.817H203.24"/>
<path fill="#FFFFFF" d="M226.644,192.182c0,8.277,0.151,9.781,10.009,11.211v1.13h-25.957v-1.13
	c9.027-1.202,9.104-3.461,9.328-11.211v-26.485c-0.225-7.75-0.301-10.006-9.328-11.211v-1.127h25.957v1.127
	c-9.857,1.432-10.009,2.936-10.009,11.211v10.91h28.2v-10.91c0-8.275-0.15-9.779-10.008-11.211v-1.127h25.959v1.127
	c-9.029,1.205-9.104,3.461-9.33,11.211v26.485c0.227,7.75,0.301,10.009,9.33,11.211v1.13h-25.959v-1.13
	c9.857-1.43,10.008-2.934,10.008-11.211v-12.414h-28.2V192.182"/>
<path fill="#FFFFFF" d="M158.554,321.67c0,0,4.901-0.049,9.651,4.701c4.751,4.75,13.61,15.293,16.651,18.4
	c6.747,6.9,11.699,4,11.699,4s-4.6-0.299-8.548-4.25c-3.901-3.9-14.801-16.551-17.952-19.701
	C164.155,318.92,158.554,321.67,158.554,321.67"/>
<path fill="#FFFFFF" d="M169.379,321.67c0,0,4.901-0.049,9.652,4.701c4.75,4.75,13.607,15.293,16.648,18.4
	c6.752,6.9,11.701,4,11.701,4s-4.602-0.299-8.551-4.25c-3.9-3.9-14.799-16.551-17.95-19.701
	C174.98,318.92,169.379,321.67,169.379,321.67"/>
<path fill="#FFFFFF" d="M209.957,321.67c0,0-4.9-0.049-9.652,4.701c-4.75,4.75-13.607,15.293-16.648,18.4
	c-6.751,6.9-11.701,4-11.701,4s4.6-0.299,8.55-4.25c3.901-3.9,14.8-16.551,17.95-19.701
	C204.355,318.92,209.957,321.67,209.957,321.67"/>
<path fill="#FFFFFF" d="M199.131,321.67c0,0-4.903-0.049-9.652,4.701c-4.748,4.75-13.606,15.293-16.648,18.4
	c-6.75,6.9-11.701,4-11.701,4s4.601-0.299,8.551-4.25c3.901-3.9,14.801-16.551,17.952-19.701
	C193.529,318.92,199.131,321.67,199.131,321.67"/>
<path fill="none" stroke="#FFFFFF" stroke-width="2.5562" stroke-linecap="round" d="M224.361,112.366
	c-12.629-4.679-25.961-7.054-39.627-7.054h-0.893c-13.668,0-27,2.375-39.629,7.054"/>
<polyline fill="#FFFFFF" points="102.011,222.341 106.023,222.341 110.484,235.842 110.53,235.842 115.016,222.341 118.646,222.341 
	112.335,239.473 108.325,239.473 102.011,222.341 "/>
<polyline fill="#FFFFFF" points="123.834,222.341 135.318,222.341 135.318,225.191 127.513,225.191 127.513,229.199 
	134.821,229.199 134.821,232.047 127.513,232.047 127.513,236.625 135.581,236.625 135.581,239.473 123.834,239.473 
	123.834,222.341 "/>
<polyline fill="#FFFFFF" points="140.744,222.341 154.623,222.341 154.623,225.191 149.523,225.191 149.523,239.473 
	145.844,239.473 145.844,225.191 140.744,225.191 140.744,222.341 "/>
<polyline fill="#FFFFFF" points="159.832,222.341 171.315,222.341 171.315,225.191 163.509,225.191 163.509,229.199 
	170.818,229.199 170.818,232.047 163.509,232.047 163.509,236.625 171.576,236.625 171.576,239.473 159.832,239.473 
	159.832,222.341 "/>
<polyline fill="#FFFFFF" points="188.755,239.473 181.994,225.236 181.948,225.281 181.948,239.473 178.506,239.473 
	178.506,222.341 183.963,222.341 190.485,235.816 190.532,235.77 190.532,222.341 193.973,222.341 193.973,239.473 188.755,239.473 
	"/>
<path fill="#FFFFFF" d="M209.494,227.227c-0.143-1.73-1.07-2.584-2.846-2.584c-1.354,0-2.729,0.714-2.729,2.209
	c0,1.848,1.66,2.063,3.131,2.418c2.607,0.664,6.455,1.398,6.455,4.84c0,4.247-3.703,5.715-7.383,5.715
	c-3.91,0-6.691-1.516-6.568-5.832h3.744c-0.137,1.898,0.953,3.176,2.875,3.176c1.469,0,3.414-0.447,3.414-2.277
	c0-2.016-2.44-2.156-3.91-2.534c-2.398-0.599-5.676-1.688-5.676-4.724c0-3.914,3.607-5.646,7.121-5.646
	c3.32,0,5.906,1.803,5.906,5.24H209.494"/>
<polyline fill="#FFFFFF" points="222.748,229.746 222.795,229.746 228.49,222.341 232.787,222.341 226.496,230.006 233.334,239.473 
	228.752,239.473 222.795,230.742 222.748,230.742 222.748,239.473 219.07,239.473 219.07,222.341 222.748,222.341 222.748,229.746 
	"/>
<path fill="#FFFFFF" d="M246.92,232.994l-2.352-7.306h-0.045l-2.516,7.306H246.92 M236.266,239.473l6.189-17.132h4.369l5.955,17.132
	h-3.701l-1.232-3.631h-6.787l-1.283,3.631H236.266z"/>
<path fill="#FFFFFF" d="M260.992,230.027c2.041-0.094,4.701,0.617,4.701-2.42s-2.66-2.326-4.701-2.416V230.027 M257.313,239.473
	v-17.132h5.29c3.798,0.024,7.003,0.925,7.003,5.267c0,3.111-2.113,5.148-5.934,5.268h-2.68v6.598H257.313z"/>
<path fill="#FFFFFF" d="M107.357,259.578c0,2.941,0.688,6.262,4.318,6.262c3.631,0,4.319-3.32,4.319-6.262
	c0-2.945-0.688-6.267-4.319-6.267C108.045,253.312,107.357,256.633,107.357,259.578 M103.441,259.578
	c0-5.053,2.562-8.924,8.234-8.924c5.671,0,8.233,3.871,8.233,8.924c0,5.051-2.562,8.92-8.233,8.92
	C106.003,268.498,103.441,264.629,103.441,259.578z"/>
<path fill="#FFFFFF" d="M135.241,256.562c0.021-1.8-1.068-3.25-3.276-3.25c-2.61,0-3.272,3.87-3.272,6.267
	c0,2.395,0.662,6.262,3.272,6.262c2.208,0,3.297-1.449,3.276-3.25h3.914c-0.165,4.297-3.249,5.908-7.19,5.908
	c-4.959,0-7.188-3.916-7.188-8.92c0-5.008,2.229-8.924,7.188-8.924c3.941,0,7.025,1.611,7.19,5.907H135.241"/>
<polyline fill="#FFFFFF" points="144.748,268.141 144.748,251.012 148.425,251.012 148.425,257.773 154.903,257.773 
	154.903,251.012 158.627,251.012 158.627,268.141 154.951,268.141 154.951,260.619 148.425,260.619 148.425,268.141 
	144.748,268.141 "/>
<polyline fill="#FFFFFF" points="177.742,258.414 177.79,258.414 183.486,251.012 187.781,251.012 181.491,258.676 188.324,268.141 
	183.746,268.141 177.79,259.41 177.742,259.41 177.742,268.141 174.065,268.141 174.065,251.012 177.742,251.012 177.742,258.414 
	"/>
<path fill="#FFFFFF" d="M195.103,259.578c0,2.941,0.685,6.262,4.321,6.262c3.631,0,4.316-3.32,4.316-6.262
	c0-2.945-0.686-6.267-4.316-6.267C195.787,253.312,195.103,256.633,195.103,259.578 M191.192,259.578
	c0-5.053,2.56-8.924,8.231-8.924c5.668,0,8.23,3.871,8.23,8.924c0,5.051-2.563,8.92-8.23,8.92
	C193.752,268.498,191.192,264.629,191.192,259.578z"/>
<polyline fill="#FFFFFF" points="223.197,268.141 216.432,253.906 216.387,253.953 216.387,268.141 212.949,268.141 
	212.949,251.012 218.404,251.012 224.928,264.488 224.977,264.44 224.977,251.012 228.416,251.012 228.416,268.141 223.197,268.141 
	"/>
<path fill="#FFFFFF" d="M244.182,255.898c-0.143-1.73-1.07-2.587-2.846-2.587c-1.354,0-2.729,0.716-2.729,2.208
	c0,1.85,1.66,2.064,3.131,2.421c2.611,0.661,6.455,1.399,6.455,4.841c0,4.244-3.703,5.717-7.378,5.717
	c-3.915,0-6.696-1.517-6.575-5.838h3.75c-0.141,1.898,0.95,3.18,2.871,3.18c1.471,0,3.414-0.449,3.414-2.278
	c0-2.015-2.441-2.159-3.91-2.536c-2.398-0.596-5.675-1.686-5.675-4.725c0-3.912,3.606-5.646,7.119-5.646
	c3.321,0,5.907,1.803,5.907,5.244H244.182"/>
<polyline fill="#FFFFFF" points="252.563,251.012 266.443,251.012 266.443,253.859 261.346,253.859 261.346,268.141 
	257.666,268.141 257.666,253.859 252.563,253.859 252.563,251.012 "/>
<path fill="#FFFFFF" d="M197.847,83.055c0.016,0.034,0.037,0.065,0.055,0.099c0.02-0.023,0.039-0.045,0.059-0.068L197.847,83.055"/>
<path fill="#FFFFFF" d="M244.968,88.642c-0.729,1.862-2.838,2.789-4.699,2.061c-0.906-0.351-1.619-1.032-2.01-1.917
	c-0.207-0.47-0.311-0.967-0.311-1.465c0-0.445,0.084-0.892,0.25-1.321c0.73-1.861,2.84-2.787,4.705-2.063
	C244.763,84.662,245.689,86.773,244.968,88.642 M230.479,94.287c-2.707-1.055-4.612-3.285-5.356-5.881
	c-2.021,1.797-4.83,2.656-7.676,2.1c-3.055-0.6-5.055-3.571-4.451-6.623c0.057-0.285,0.324-1.395,0.451-1.805
	c0.404,2.131,2.049,3.91,4.301,4.352c2.965,0.582,5.854-1.362,6.432-4.321c0.584-2.963-1.359-5.847-4.322-6.427
	c-0.313-0.065-0.657-0.004-0.986-0.005c0.094-0.256,0.201-0.549,0.201-0.549c0.128-0.649,0.128-1.294,0.028-1.912
	c2.705-0.725,4.706-3.188,4.706-6.118c0-2.354-1.293-4.408-3.204-5.501c1.584-0.917,2.667-2.613,2.667-4.572
	c0-2.752-2.119-4.994-4.807-5.246c0.103-0.145,0.186-0.3,0.27-0.455c11.359,3.621,17.252,9.116,19.943,14.601
	c0.143,0.538,0.357,1.047,0.66,1.497c1.115,2.861,1.416,5.672,1.221,8.16l0.162,0.339c0.063,0.692,0.246,1.348,0.529,1.952
	c-0.047,0.021-0.087,0.054-0.133,0.077c-0.215,0.106-0.424,0.224-0.623,0.358c-0.11,0.073-0.215,0.154-0.319,0.236
	c-0.13,0.101-0.255,0.209-0.376,0.323c-0.152,0.141-0.293,0.292-0.43,0.451c-0.072,0.086-0.141,0.174-0.208,0.265
	c-0.155,0.207-0.294,0.426-0.421,0.658c-0.04,0.074-0.078,0.15-0.115,0.227c-0.063,0.132-0.145,0.251-0.197,0.389
	c0,0-0.067,0.294-0.12,0.56c-0.283-0.177-0.536-0.409-0.839-0.525c-1.061-0.413-2.269-0.67-3.441-0.628
	c-1.951,0.064-3.81,0.953-4.734,3.328c-1.098,2.814,0.299,5.994,3.115,7.09c1.523,0.594,3.143,0.439,4.488-0.263
	c0.225,0.341,0.477,0.658,0.766,0.939C236.431,94.067,233.28,95.38,230.479,94.287z M209.544,77.498
	c0.366-1.87,2.116-3.095,3.979-2.869l0.501,0.098c1.807,0.493,2.97,2.289,2.602,4.16c-0.383,1.955-2.281,3.226-4.232,2.845
	C210.435,81.35,209.159,79.455,209.544,77.498z M210.602,83.414c-0.597,3.053-3.569,5.051-6.623,4.451
	c-2.812-0.549-4.875-2.336-6.077-4.711c-1.635,2.108-3.966,3.471-6.836,3.471c-3.111,0-5.642-2.535-5.642-5.644
	c0-0.293,0.054-1.432,0.09-1.86c0.815,2.012,2.771,3.444,5.068,3.444c3.02,0,5.478-2.458,5.478-5.475
	c0-3.022-2.458-5.479-5.478-5.479c-0.326,0-0.647,0.124-0.97,0.186c0.046-0.269,0.089-0.573,0.089-0.573
	c0-0.481-0.068-0.946-0.186-1.391l1.957-1.206c0,0-0.204-18.803-3.528-27.095c0.062-0.035,0.121-0.076,0.183-0.113
	c26.896,1.602,24.573,20.35,21.392,26.95l0.799,1.387c-0.035,0.027-0.063,0.063-0.099,0.091c-0.153,0.126-0.298,0.262-0.437,0.405
	c-0.104,0.104-0.201,0.211-0.296,0.324c-0.055,0.066-0.104,0.137-0.156,0.206c-0.162,0.213-0.308,0.435-0.439,0.672
	c-0.015,0.027-0.027,0.055-0.042,0.082c-0.153,0.292-0.28,0.599-0.381,0.923c-0.006,0.017-0.01,0.035-0.016,0.052
	c-0.051,0.172-0.115,0.336-0.15,0.514c0,0-0.016,0.309-0.02,0.582c-0.318-0.125-0.613-0.314-0.943-0.38
	c-2.963-0.581-5.848,1.361-6.426,4.324c-0.58,2.961,1.354,5.845,4.322,6.426c2.256,0.443,4.447-0.584,5.633-2.405
	C210.821,82,210.659,83.127,210.602,83.414z M180.655,75.402c0-1.982,1.599-3.584,3.582-3.6h0.058
	c1.978,0.016,3.577,1.618,3.577,3.6c0,1.994-1.616,3.608-3.606,3.608C182.27,79.01,180.655,77.396,180.655,75.402z M177.343,86.625
	c-2.904,0-5.308-1.424-6.947-3.57c-1.197,2.426-3.281,4.254-6.131,4.81c-3.055,0.6-6.027-1.398-6.625-4.451
	c-0.057-0.287-0.219-1.414-0.264-1.842c1.184,1.821,3.377,2.848,5.631,2.405c2.969-0.581,4.903-3.465,4.324-6.426
	c-0.58-2.963-3.464-4.905-6.427-4.324c-0.322,0.064-0.61,0.245-0.917,0.369c-0.005-0.27-0.02-0.572-0.02-0.572
	c-0.262-1.345-1.002-2.476-2.005-3.259l0.806-1.396c-3.19-6.614-5.517-25.429,21.563-26.961c0.108,0.064,0.214,0.128,0.324,0.187
	C177.347,49.872,177,68.398,177,68.398l1.958,1.263c-0.148,0.496-0.23,1.02-0.23,1.564c0,0,0.049,0.308,0.09,0.578
	c-0.328-0.061-0.662-0.192-0.992-0.192c-3.02,0-5.481,2.457-5.481,5.479c0,3.017,2.461,5.475,5.481,5.475
	c2.299,0,4.255-1.432,5.066-3.444c0.041,0.428,0.09,1.567,0.09,1.86C182.982,84.09,180.453,86.625,177.343,86.625z M151.891,78.887
	c-0.387-1.957,0.895-3.85,2.85-4.235c1.957-0.379,3.851,0.891,4.23,2.846c0.387,1.957-0.89,3.852-2.846,4.234
	C154.172,82.113,152.272,80.842,151.891,78.887z M150.798,90.506c-2.847,0.556-5.656-0.303-7.675-2.1
	c-0.747,2.596-2.651,4.826-5.358,5.881c-2.742,1.069-5.819-0.162-7.103-2.755c0.341-0.301,0.646-0.638,0.901-1.009
	c1.033,0.484,2.209,0.648,3.373,0.416c0.113-0.019,0.231-0.043,0.356-0.077c0.007-0.002,0.015-0.005,0.022-0.007
	c0.175-0.048,0.35-0.096,0.55-0.174c2.816-1.096,4.213-4.276,3.115-7.09c-1.017-2.612-3.164-3.427-5.323-3.323
	c-0.984,0.044-1.971,0.28-2.856,0.625c-0.301,0.116-0.555,0.348-0.838,0.524c-0.052-0.266-0.122-0.561-0.122-0.561
	c-0.533-1.371-1.564-2.403-2.805-2.976c0.284-0.605,0.472-1.264,0.534-1.959l0.162-0.339c-0.195-2.488,0.106-5.299,1.221-8.161
	c0.302-0.449,0.516-0.958,0.658-1.495c2.692-5.486,8.585-10.98,19.945-14.602c0.084,0.155,0.169,0.31,0.269,0.455
	c-2.688,0.252-4.806,2.494-4.806,5.246c0,1.959,1.081,3.655,2.666,4.572c-1.911,1.093-3.203,3.147-3.203,5.501
	c0,2.923,1.992,5.384,4.687,6.115c-0.099,0.62-0.099,1.266,0.029,1.916c0,0,0.105,0.293,0.201,0.549
	c-0.338,0.004-0.69-0.063-1.01,0.004c-2.965,0.58-4.908,3.464-4.324,6.427c0.58,2.959,3.467,4.903,6.432,4.321
	c2.252-0.442,3.898-2.221,4.302-4.352c0.125,0.41,0.395,1.52,0.45,1.805C155.851,86.935,153.851,89.906,150.798,90.506z
	 M128.252,90.702c-1.864,0.729-3.974-0.198-4.705-2.065c-0.72-1.864,0.208-3.975,2.071-4.702c1.861-0.722,3.97,0.204,4.7,2.065
	c0.167,0.432,0.247,0.876,0.247,1.312C130.565,88.769,129.685,90.146,128.252,90.702z M121.7,71.49c2.148,0,3.896,1.749,3.896,3.899
	c0,0.731-0.215,1.407-0.567,1.993c-0.754-0.041-1.528,0.069-2.277,0.361c-0.758,0.297-1.844,0.72-2.816,1.099
	c-1.26-0.646-2.133-1.944-2.133-3.453C117.803,73.239,119.551,71.49,121.7,71.49z M121.915,64.672c0-1.62,1.315-2.938,2.933-2.938
	c1.623,0,2.944,1.318,2.944,2.938c0,1.621-1.321,2.939-2.944,2.939C123.23,67.611,121.915,66.293,121.915,64.672z M130.592,54.953
	c1.141,0,2.069,0.929,2.069,2.07s-0.928,2.069-2.069,2.069c-1.142,0-2.072-0.928-2.072-2.069S129.45,54.953,130.592,54.953z
	 M137.608,50.344c0.938,0,1.701,0.765,1.701,1.705c0,0.94-0.763,1.705-1.701,1.705c-0.943,0-1.711-0.765-1.711-1.705
	C135.897,51.109,136.665,50.344,137.608,50.344z M145.127,47.247c0.749,0,1.358,0.61,1.358,1.361c0,0.749-0.609,1.359-1.358,1.359
	s-1.359-0.61-1.359-1.359C143.768,47.857,144.378,47.247,145.127,47.247z M150.315,53.729c1.818,0,3.297,1.479,3.297,3.296
	c0,1.82-1.479,3.299-3.297,3.299s-3.297-1.479-3.297-3.299C147.018,55.208,148.497,53.729,150.315,53.729z M153.674,46.434
	c1.477,0,2.678,1.205,2.678,2.686c0,1.478-1.201,2.681-2.678,2.681c-1.482,0-2.687-1.203-2.687-2.681
	C150.987,47.639,152.192,46.434,153.674,46.434z M153.54,68.702c-1.607,0.313-2.908,1.308-3.674,2.623
	c-1.934-0.437-3.385-2.162-3.385-4.227c0-2.393,1.948-4.34,4.342-4.34c2.396,0,4.345,1.947,4.345,4.34
	c0,0.534-0.11,1.041-0.287,1.514C154.44,68.589,153.992,68.613,153.54,68.702z M159.5,42.073c1.074,0,1.948,0.875,1.948,1.951
	c0,1.074-0.874,1.947-1.948,1.947c-1.08,0-1.958-0.873-1.958-1.947C157.542,42.948,158.42,42.073,159.5,42.073z M165.827,38.973
	c0.863,0,1.566,0.706,1.566,1.574c0,0.87-0.703,1.576-1.566,1.576c-0.871,0-1.58-0.706-1.58-1.576
	C164.247,39.679,164.956,38.973,165.827,38.973z M173.016,37.282c0.688,0,1.248,0.563,1.248,1.256c0,0.694-0.56,1.259-1.248,1.259
	c-0.696,0-1.262-0.565-1.262-1.259C171.754,37.845,172.32,37.282,173.016,37.282z M181.922,34.669
	c-0.56,0.584-0.909,1.373-0.909,2.244c0,0.238,0.029,0.469,0.078,0.693c-0.519,0.014-1.035,0.028-1.538,0.049
	c-0.454-0.737-0.738-1.586-0.8-2.498C178.998,35.028,179.908,34.781,181.922,34.669z M181.681,29.912
	c0.421,0.275,0.963,0.466,1.576,0.57v1.937c-1.846,0.031-3.18,0.159-4.138,0.355C179.604,31.542,180.519,30.525,181.681,29.912z
	 M179.57,21.354c-0.113-0.135-0.337-0.585-0.337-1.382c0-0.792,0.223-1.238,0.335-1.372c0.324,0,3.296,0,3.296,0s0-2.97,0-3.298
	c0.136-0.112,0.585-0.333,1.381-0.333c0.791,0,1.237,0.221,1.375,0.332c0,0.328,0,3.299,0,3.299s2.972,0,3.298,0
	c0.113,0.134,0.336,0.581,0.336,1.372c0,0.797-0.225,1.246-0.338,1.382c-0.326,0-3.296,0-3.296,0s0,6.316,0,6.681
	c-0.138,0.113-0.585,0.337-1.375,0.337c-0.795,0-1.245-0.224-1.381-0.338c0-0.365,0-6.68,0-6.68S179.895,21.354,179.57,21.354z
	 M189.4,32.89c-1.249-0.309-2.818-0.436-4.344-0.47v-1.905c0.687-0.093,1.283-0.301,1.744-0.601
	C187.997,30.546,188.928,31.607,189.4,32.89z M184.258,44.186c1.545,0,2.791,1.248,2.791,2.791c0,1.535-1.246,2.791-2.791,2.791
	c-1.539,0-2.789-1.256-2.789-2.791C181.469,45.434,182.719,44.186,184.258,44.186z M183.013,36.913c0-0.693,0.567-1.256,1.263-1.256
	c0.689,0,1.25,0.563,1.25,1.256s-0.561,1.257-1.25,1.257C183.58,38.17,183.013,37.606,183.013,36.913z M184.262,39.364
	c1.033,0,1.873,0.845,1.873,1.881c0,1.039-0.84,1.882-1.873,1.882c-1.041,0-1.887-0.843-1.887-1.882
	C182.375,40.209,183.221,39.364,184.262,39.364z M184.258,58.1c-1.976,0-3.58-1.6-3.58-3.576c0-1.977,1.604-3.58,3.58-3.58
	c1.981,0,3.586,1.603,3.586,3.58C187.844,56.5,186.239,58.1,184.258,58.1z M187.57,66.894c-0.927-0.717-2.083-1.149-3.341-1.149
	c-1.241,0-2.383,0.42-3.303,1.118c-0.687-0.783-1.117-1.798-1.117-2.923c0-2.461,1.99-4.452,4.449-4.452
	c2.461,0,4.457,1.991,4.457,4.452C188.715,65.079,188.274,66.107,187.57,66.894z M189.588,71.802h0.004
	c-0.001,0-0.003,0.001-0.004,0.001C189.588,71.802,189.588,71.802,189.588,71.802z M189.717,35.289
	c-0.08,0.865-0.364,1.671-0.799,2.375c-0.482-0.021-0.976-0.037-1.472-0.051c0.049-0.226,0.08-0.46,0.08-0.7
	c0-0.85-0.334-1.617-0.867-2.197C188.25,34.854,189.301,35.101,189.717,35.289z M189.738,34.831c0,0.106-0.008,0.209-0.016,0.313
	c-0.035-0.084-0.064-0.186-0.064-0.313H189.738z M195.271,37.282c0.694,0,1.261,0.563,1.261,1.256c0,0.694-0.566,1.259-1.261,1.259
	c-0.69,0-1.249-0.565-1.249-1.259C194.022,37.845,194.581,37.282,195.271,37.282z M202.46,38.973c0.871,0,1.58,0.706,1.58,1.574
	c0,0.87-0.709,1.576-1.58,1.576c-0.863,0-1.566-0.706-1.566-1.576C200.894,39.679,201.597,38.973,202.46,38.973z M208.786,42.073
	c1.08,0,1.959,0.875,1.959,1.951c0,1.074-0.879,1.947-1.959,1.947c-1.074,0-1.947-0.873-1.947-1.947
	C206.839,42.948,207.712,42.073,208.786,42.073z M214.612,46.434c1.48,0,2.688,1.205,2.688,2.686c0,1.478-1.207,2.681-2.688,2.681
	c-1.477,0-2.678-1.203-2.678-2.681C211.935,47.639,213.136,46.434,214.612,46.434z M214.753,68.702
	c-0.454-0.09-0.904-0.114-1.347-0.09c-0.179-0.473-0.288-0.98-0.288-1.514c0-2.393,1.949-4.34,4.346-4.34
	c2.395,0,4.342,1.947,4.342,4.34c0,2.063-1.449,3.787-3.381,4.226C217.659,70.009,216.358,69.015,214.753,68.702z M218.849,75.672
	l0.021,0.005c-0.008,0-0.017,0.001-0.023,0.001C218.848,75.676,218.848,75.674,218.849,75.672z M221.269,57.025
	c0,1.82-1.479,3.299-3.297,3.299s-3.297-1.479-3.297-3.299c0-1.817,1.479-3.296,3.297-3.296S221.269,55.208,221.269,57.025z
	 M223.159,47.247c0.75,0,1.359,0.61,1.359,1.361c0,0.749-0.609,1.359-1.359,1.359c-0.748,0-1.357-0.61-1.357-1.359
	C221.802,47.857,222.411,47.247,223.159,47.247z M230.679,50.344c0.943,0,1.711,0.765,1.711,1.705c0,0.94-0.768,1.705-1.711,1.705
	c-0.939,0-1.702-0.765-1.702-1.705C228.977,51.109,229.739,50.344,230.679,50.344z M237.694,54.953c1.143,0,2.072,0.929,2.072,2.07
	s-0.93,2.069-2.072,2.069c-1.141,0-2.068-0.928-2.068-2.069S236.554,54.953,237.694,54.953z M243.439,61.734
	c1.616,0,2.933,1.318,2.933,2.938c0,1.621-1.316,2.939-2.933,2.939c-1.624,0-2.944-1.318-2.944-2.939
	C240.495,63.052,241.815,61.734,243.439,61.734z M246.587,71.49c2.148,0,3.896,1.749,3.896,3.899c0,1.509-0.872,2.805-2.132,3.451
	c-0.97-0.378-2.054-0.8-2.812-1.097c-0.751-0.292-1.526-0.403-2.282-0.361c-0.353-0.585-0.567-1.262-0.567-1.993
	C242.69,73.239,244.439,71.49,246.587,71.49z M250.606,79.718c0,0-0.014-0.006-0.024-0.01c1.166-1.077,1.901-2.612,1.901-4.319
	c0-3.252-2.646-5.899-5.896-5.899c-0.26,0-0.516,0.023-0.768,0.056c-0.041-0.165-0.094-0.333-0.141-0.499
	c1.593-0.82,2.693-2.463,2.693-4.375c0-2.723-2.213-4.938-4.933-4.938c-0.913,0-1.759,0.266-2.493,0.699
	c-0.141-0.165-0.275-0.329-0.424-0.493c0.764-0.741,1.244-1.772,1.244-2.917c0-2.244-1.827-4.069-4.072-4.069
	c-1.379,0-2.596,0.692-3.332,1.745c-0.23-0.155-0.466-0.308-0.707-0.461c0.455-0.615,0.734-1.367,0.734-2.189
	c0-2.043-1.666-3.705-3.711-3.705c-1.604,0-2.959,1.032-3.473,2.462c-0.379-0.168-0.773-0.331-1.168-0.495
	c0.297-0.501,0.48-1.079,0.48-1.703c0-1.854-1.508-3.361-3.359-3.361c-1.676,0-3.056,1.236-3.306,2.843
	c-0.253-0.078-0.493-0.16-0.752-0.237c-0.556-1.966-2.347-3.419-4.489-3.419c-0.477,0-0.934,0.083-1.365,0.219
	c-0.168-0.138-0.34-0.275-0.516-0.411c0.004-0.073,0.014-0.144,0.014-0.218c0-2.179-1.777-3.951-3.959-3.951
	c-0.857,0-1.646,0.282-2.293,0.749c-0.154-0.059-0.308-0.12-0.463-0.178c0-0.033,0.01-0.063,0.01-0.097
	c0-1.97-1.607-3.574-3.58-3.574c-1.338,0-2.492,0.751-3.104,1.846c-0.273-0.053-0.555-0.104-0.838-0.154
	c0.003-0.043,0.014-0.084,0.014-0.127c0-1.796-1.463-3.256-3.261-3.256c-1.56,0-2.862,1.106-3.175,2.575
	c-0.254-0.02-0.516-0.037-0.774-0.055c0.397-0.927,0.618-1.948,0.618-3.019c0-2.956-1.675-5.526-4.121-6.818c0-0.795,0-3.215,0-4.41
	c0.642,0,1.292,0,1.292,0c1.357,0,2.342-1.507,2.342-3.583c0-2.07-0.984-3.573-2.342-3.573c0,0-0.65,0-1.292,0
	c0-0.642,0-1.292,0-1.292c0-1.355-1.504-2.338-3.574-2.338c-2.075,0-3.581,0.983-3.581,2.338c0,0,0,0.65,0,1.292
	c-0.639,0-1.287,0-1.287,0c-1.358,0-2.344,1.503-2.344,3.573c0,2.076,0.986,3.583,2.344,3.583c0,0,0.648,0,1.287,0
	c0,1.193,0,3.61,0,4.408c-2.452,1.291-4.13,3.862-4.13,6.82c0,1.066,0.218,2.082,0.613,3.006c-0.321,0.022-0.643,0.044-0.957,0.068
	c-0.313-1.469-1.616-2.575-3.174-2.575c-1.798,0-3.262,1.46-3.262,3.256c0,0.043,0.012,0.084,0.013,0.127
	c-0.282,0.05-0.563,0.101-0.838,0.154c-0.611-1.095-1.764-1.846-3.102-1.846c-1.975,0-3.58,1.604-3.58,3.574
	c0,0.034,0.008,0.064,0.009,0.097c-0.157,0.058-0.309,0.119-0.463,0.178c-0.647-0.467-1.435-0.749-2.293-0.749
	c-2.183,0-3.958,1.772-3.958,3.951c0,0.074,0.008,0.146,0.013,0.219c-0.176,0.135-0.349,0.272-0.516,0.41
	c-0.432-0.136-0.888-0.219-1.365-0.219c-2.142,0-3.934,1.453-4.491,3.419c-0.258,0.077-0.498,0.159-0.75,0.237
	c-0.251-1.607-1.632-2.843-3.306-2.843c-1.852,0-3.359,1.507-3.359,3.361c0,0.624,0.182,1.202,0.48,1.703
	c-0.394,0.164-0.79,0.327-1.169,0.495c-0.513-1.43-1.868-2.462-3.471-2.462c-2.047,0-3.711,1.662-3.711,3.705
	c0,0.822,0.278,1.574,0.733,2.189c-0.239,0.153-0.476,0.306-0.707,0.461c-0.737-1.053-1.952-1.745-3.331-1.745
	c-2.245,0-4.072,1.825-4.072,4.069c0,1.145,0.479,2.176,1.244,2.917c-0.148,0.164-0.283,0.329-0.424,0.493
	c-0.735-0.433-1.579-0.699-2.492-0.699c-2.72,0-4.933,2.215-4.933,4.938c0,1.912,1.102,3.555,2.692,4.375
	c-0.047,0.166-0.1,0.334-0.141,0.499c-0.252-0.033-0.506-0.056-0.766-0.056c-3.252,0-5.897,2.647-5.897,5.899
	c0,1.705,0.732,3.238,1.894,4.315c-0.024,0.01-0.037,0.015-0.037,0.015s1.833,1.945,4.257,5.071
	c-0.693,1.376-0.831,3.026-0.234,4.572c0.964,2.462,3.473,3.863,5.978,3.536c2.297,2.912,6.156,6.399,9.303,5.5
	c0,0,19.697-9.179,47.159-9.216c27.458,0.037,47.157,9.216,47.157,9.216c3.159,0.903,7.034-2.615,9.326-5.533
	c2.584,0.457,5.23-0.957,6.225-3.498c0.629-1.629,0.451-3.375-0.338-4.792c1.837-2.355,3.296-3.989,3.844-4.59
	C250.427,79.897,250.515,79.815,250.606,79.718z"/>
<path fill="#FFFFFF" d="M208.92,101.155c1.178,0.243,2.336-0.515,2.568-1.691c0.25-1.182-0.504-2.338-1.691-2.58l-4.299-0.887
	c-1.18-0.244-2.336,0.52-2.578,1.699c-0.236,1.182,0.521,2.332,1.703,2.578L208.92,101.155 M224.383,103.381
	c1.047,1.242,2.199,2.61,2.776,3.295c0.729-0.404,1.705-0.946,2.46-1.364c-0.302-0.808-0.692-1.853-0.983-2.633
	C227.751,102.825,225.986,103.116,224.383,103.381z M179.823,96.51c1.617,0.92,3.883,2.208,4.514,2.567
	c0.631-0.359,2.896-1.647,4.51-2.567c-1.614-0.92-3.878-2.209-4.51-2.569C183.706,94.3,181.44,95.59,179.823,96.51z
	 M163.953,100.274c1.183-0.246,1.939-1.396,1.703-2.578c-0.242-1.179-1.399-1.943-2.58-1.699l-4.297,0.887
	c-1.188,0.242-1.94,1.398-1.694,2.58c0.237,1.176,1.393,1.934,2.573,1.691L163.953,100.274z M138.957,105.312
	c0.754,0.418,1.731,0.961,2.459,1.364c0.578-0.685,1.73-2.053,2.777-3.295c-1.603-0.265-3.367-0.556-4.251-0.702
	C139.65,103.458,139.259,104.504,138.957,105.312z M224.803,106.92c-12.068-4.457-24.736-6.845-37.717-7.106l-2.749,1.564
	l-2.744-1.561c-13.083,0.295-25.847,2.753-37.995,7.311l-1.723,2.045l-5.345-2.967l1.858-4.968l0.282-0.755l2.397,0.395
	c13.094-5.026,26.874-7.694,40.998-7.945l1.778-1.012l0.494-0.282l2.265,1.29c14.185,0.219,28.023,2.873,41.179,7.905l1.332-0.22
	l0.795-0.131l2.138,5.723l-5.345,2.967L224.803,106.92z"/>
<path fill="none" stroke="#FFFFFF" stroke-width="2.8346" d="M69.774,129.382c0.108-1.015,0-2.151-0.357-3.297
	c-0.914-2.906-3.621-5.094-5.133-4.625c-0.191,0.064-0.467-0.451-0.672-0.383c-0.195,0.061-0.125,0.639-0.32,0.699
	c-1.516,0.469-2.49,3.815-1.578,6.725c0.356,1.141,0.912,2.134,1.578,2.906"/>
<path fill="none" stroke="#FFFFFF" stroke-width="2.8346" stroke-linejoin="round" d="M67.936,134.839
	c2.941-0.916,4.773-3.443,3.947-6.086c-0.303-0.98-1.123-1.033-1.123-1.033c0.258,0.773-1.479,2.504-4.021,3.306
	c-2.537,0.789-4.951,0.358-5.178-0.431c0,0-0.645,0.517-0.336,1.504C62.045,134.741,64.995,135.763,67.936,134.839z"/>
<path fill="none" stroke="#FFFFFF" stroke-width="2.8346" stroke-linecap="round" d="M68.775,134.653
	c0.172,0.514,0.243,0.621,0.586,1.088c0.35,0.475,0.75,0.858,1.188,1.162"/>
<path fill="none" stroke="#FFFFFF" stroke-width="2.8346" d="M83.161,138.974c0.927-0.427,2.039-0.689,3.238-0.717
	c3.046-0.065,5.985,1.799,6.025,3.382c0,0.202,0.577,0.297,0.578,0.513c0.005,0.204-0.565,0.324-0.56,0.528
	c0.041,1.586-2.816,3.58-5.865,3.648c-1.195,0.028-2.313-0.18-3.259-0.564"/>
<path fill="none" stroke="#FFFFFF" stroke-width="2.8346" stroke-linejoin="round" d="M78.58,142.463
	c-0.074-3.08,1.734-5.625,4.502-5.689c1.025-0.027,1.338,0.733,1.338,0.733c-0.815,0.004-1.898,2.203-1.845,4.869
	c0.065,2.656,1.247,4.805,2.067,4.767c0,0-0.284,0.776-1.317,0.799C80.559,148.012,78.646,145.545,78.58,142.463z"/>
<path fill="none" stroke="#FFFFFF" stroke-width="2.8346" stroke-linecap="round" d="M78.487,141.607
	c-0.542,0.002-0.667-0.03-1.219-0.206c-0.561-0.179-1.052-0.436-1.48-0.753"/>
<path fill="none" stroke="#FFFFFF" stroke-width="2.8346" d="M61.554,196.729c0.594-0.829,1.429-1.608,2.455-2.229
	c2.613-1.567,6.089-1.409,6.91-0.053c0.1,0.174,0.648-0.029,0.757,0.157c0.105,0.175-0.331,0.562-0.225,0.736
	c0.823,1.357-0.668,4.507-3.28,6.079c-1.023,0.617-2.099,0.99-3.109,1.127"/>
<path fill="none" stroke="#FFFFFF" stroke-width="2.8346" stroke-linejoin="round" d="M59.31,202.032
	c-1.593-2.636-1.287-5.743,1.084-7.173c0.877-0.533,1.525-0.028,1.525-0.028c-0.705,0.408-0.555,2.854,0.815,5.143
	c1.375,2.273,3.467,3.552,4.16,3.112c0,0,0.139,0.814-0.746,1.347C63.782,205.867,60.897,204.675,59.31,202.032z"/>
<path fill="none" stroke="#FFFFFF" stroke-width="2.8346" stroke-linecap="round" d="M58.805,201.336
	c-0.47,0.271-0.594,0.304-1.161,0.425c-0.576,0.123-1.13,0.145-1.658,0.082"/>
<path fill="none" stroke="#FFFFFF" stroke-width="2.8346" d="M45.769,195.496c-0.404-0.938-1.058-1.874-1.931-2.696
	c-2.224-2.083-5.656-2.658-6.743-1.507c-0.135,0.15-0.628-0.163-0.773-0.003c-0.141,0.149,0.205,0.617,0.064,0.766
	c-1.09,1.153-0.295,4.546,1.93,6.634c0.87,0.818,1.843,1.409,2.802,1.755"/>
<path fill="none" stroke="#FFFFFF" stroke-width="2.8346" stroke-linejoin="round" d="M46.849,201.151
	c2.112-2.242,2.466-5.344,0.448-7.239c-0.745-0.705-1.485-0.348-1.485-0.348c0.604,0.546-0.058,2.906-1.879,4.854
	c-1.822,1.934-4.137,2.744-4.722,2.168c0,0-0.307,0.767,0.446,1.476C41.67,203.961,44.741,203.401,46.849,201.151z"/>
<path fill="none" stroke="#FFFFFF" stroke-width="2.8346" stroke-linecap="round" d="M47.49,200.578
	c0.401,0.362,0.517,0.422,1.045,0.659c0.537,0.241,1.074,0.379,1.604,0.429"/>
<path fill="none" stroke="#FFFFFF" stroke-width="2.8346" d="M71.196,258.166c0.117-1.015,0.472-2.101,1.069-3.141
	c1.528-2.636,4.646-4.179,6.021-3.39c0.171,0.104,0.553-0.34,0.738-0.229c0.177,0.102-0.018,0.651,0.159,0.753
	c1.377,0.788,1.597,4.268,0.071,6.907c-0.597,1.035-1.356,1.882-2.175,2.49"/>
<path fill="none" stroke="#FFFFFF" stroke-width="2.8346" stroke-linejoin="round" d="M71.798,263.893
	c-2.669-1.536-3.905-4.404-2.521-6.802c0.509-0.891,1.32-0.764,1.32-0.764c-0.419,0.699,0.896,2.767,3.202,4.106
	c2.304,1.324,4.753,1.431,5.147,0.71c0,0,0.515,0.646-0.002,1.54C77.568,265.084,74.467,265.436,71.798,263.893z"/>
<path fill="none" stroke="#FFFFFF" stroke-width="2.8346" stroke-linecap="round" d="M71.02,263.527
	c-0.28,0.464-0.373,0.553-0.811,0.934c-0.444,0.387-0.919,0.673-1.411,0.874"/>
<path fill="none" stroke="#FFFFFF" stroke-width="2.8346" d="M56.713,264.511c-0.81-0.621-1.837-1.121-3-1.414
	c-2.956-0.736-6.233,0.435-6.623,1.969c-0.044,0.197-0.627,0.162-0.677,0.374c-0.051,0.198,0.48,0.439,0.43,0.638
	c-0.391,1.537,1.957,4.113,4.916,4.853c1.159,0.292,2.296,0.334,3.302,0.169"/>
<path fill="none" stroke="#FFFFFF" stroke-width="2.8346" stroke-linejoin="round" d="M60.412,268.924
	c0.752-2.988-0.449-5.868-3.135-6.54c-0.994-0.253-1.468,0.418-1.468,0.418c0.795,0.184,1.366,2.567,0.725,5.156
	c-0.649,2.577-2.276,4.412-3.067,4.193c0,0,0.105,0.819,1.108,1.071C57.257,273.9,59.666,271.916,60.412,268.924z"/>
<path fill="none" stroke="#FFFFFF" stroke-width="2.8346" stroke-linecap="round" d="M60.692,268.111
	c0.526,0.121,0.656,0.116,1.233,0.067c0.587-0.051,1.123-0.193,1.61-0.407"/>
<path fill="none" stroke="#FFFFFF" stroke-width="2.8346" d="M109.641,305.783c-0.394-0.943-0.615-2.064-0.601-3.263
	c0.047-3.047,2.015-5.916,3.6-5.899c0.2,0.007,0.317-0.565,0.533-0.56c0.204,0.002,0.303,0.577,0.507,0.58
	c1.586,0.015,3.476,2.944,3.434,5.992c-0.015,1.195-0.264,2.305-0.681,3.235"/>
<path fill="none" stroke="#FFFFFF" stroke-width="2.8346" stroke-linejoin="round" d="M112.962,310.487
	c-3.08-0.039-5.559-1.938-5.522-4.705c0.009-1.026,0.78-1.312,0.78-1.312c-0.025,0.815,2.132,1.977,4.799,2.021
	c2.657,0.03,4.846-1.072,4.838-1.895c0,0,0.765,0.313,0.75,1.346C118.579,308.709,116.045,310.53,112.962,310.487z"/>
<path fill="none" stroke="#FFFFFF" stroke-width="2.8346" stroke-linecap="round" d="M112.104,310.548
	c-0.018,0.542-0.056,0.664-0.252,1.21c-0.199,0.556-0.473,1.036-0.804,1.452"/>
<path fill="none" stroke="#FFFFFF" stroke-width="2.8346" d="M100.412,319.152c-1.011-0.146-2.151-0.079-3.309,0.234
	c-2.938,0.804-5.225,3.429-4.813,4.957c0.058,0.193-0.468,0.448-0.408,0.656c0.053,0.198,0.635,0.149,0.688,0.347
	c0.411,1.531,3.719,2.631,6.661,1.828c1.153-0.313,2.166-0.832,2.961-1.468"/>
<path fill="none" stroke="#FFFFFF" stroke-width="2.8346" stroke-linejoin="round" d="M105.796,321.192
	c-0.806-2.973-3.263-4.898-5.934-4.17c-0.99,0.266-1.075,1.082-1.075,1.082c0.783-0.229,2.447,1.571,3.154,4.143
	c0.695,2.566,0.172,4.962-0.625,5.158c0,0,0.494,0.663,1.492,0.393C105.478,327.076,106.608,324.167,105.796,321.192z"/>
<path fill="none" stroke="#FFFFFF" stroke-width="2.8346" stroke-linecap="round" d="M105.643,320.347
	c0.518-0.151,0.629-0.219,1.108-0.544c0.487-0.331,0.886-0.718,1.206-1.144"/>
<path fill="none" stroke="#FFFFFF" stroke-width="2.8346" d="M297.274,258.12c-0.117-1.014-0.473-2.101-1.07-3.142
	c-1.527-2.635-4.646-4.178-6.021-3.389c-0.17,0.104-0.553-0.34-0.738-0.229c-0.176,0.102,0.018,0.651-0.158,0.753
	c-1.377,0.788-1.597,4.268-0.072,6.908c0.597,1.034,1.357,1.881,2.176,2.489"/>
<path fill="none" stroke="#FFFFFF" stroke-width="2.8346" stroke-linejoin="round" d="M296.673,263.847
	c2.668-1.537,3.904-4.404,2.521-6.802c-0.51-0.891-1.32-0.764-1.32-0.764c0.418,0.7-0.897,2.767-3.203,4.106
	c-2.303,1.324-4.752,1.431-5.146,0.71c0,0-0.516,0.646,0.002,1.54C290.901,265.038,294.003,265.391,296.673,263.847z"/>
<path fill="none" stroke="#FFFFFF" stroke-width="2.8346" stroke-linecap="round" d="M297.45,263.481
	c0.281,0.464,0.373,0.553,0.811,0.934c0.445,0.387,0.92,0.673,1.412,0.874"/>
<path fill="none" stroke="#FFFFFF" stroke-width="2.8346" d="M258.802,305.783c0.395-0.943,0.615-2.064,0.602-3.263
	c-0.047-3.047-2.016-5.916-3.6-5.899c-0.202,0.007-0.318-0.565-0.532-0.56c-0.206,0.002-0.304,0.577-0.509,0.58
	c-1.586,0.015-3.477,2.944-3.434,5.992c0.016,1.195,0.264,2.305,0.682,3.235"/>
<path fill="none" stroke="#FFFFFF" stroke-width="2.8346" stroke-linejoin="round" d="M255.481,310.487
	c3.079-0.039,5.559-1.938,5.521-4.705c-0.01-1.026-0.779-1.312-0.779-1.312c0.023,0.815-2.133,1.977-4.801,2.021
	c-2.656,0.03-4.846-1.072-4.838-1.895c0,0-0.764,0.313-0.75,1.346C249.864,308.709,252.397,310.53,255.481,310.487z"/>
<path fill="none" stroke="#FFFFFF" stroke-width="2.8346" stroke-linecap="round" d="M256.339,310.548
	c0.018,0.542,0.058,0.664,0.252,1.21c0.199,0.556,0.474,1.036,0.806,1.452"/>
<path fill="none" stroke="#FFFFFF" stroke-width="2.8346" d="M268.123,319.21c1.01-0.146,2.15-0.08,3.309,0.234
	c2.938,0.803,5.225,3.428,4.813,4.957c-0.057,0.193,0.469,0.447,0.408,0.656c-0.053,0.197-0.635,0.148-0.688,0.346
	c-0.41,1.531-3.719,2.631-6.66,1.828c-1.154-0.313-2.166-0.832-2.963-1.467"/>
<path fill="none" stroke="#FFFFFF" stroke-width="2.8346" stroke-linejoin="round" d="M262.738,321.249
	c0.807-2.973,3.264-4.898,5.934-4.17c0.99,0.266,1.076,1.082,1.076,1.082c-0.783-0.229-2.447,1.572-3.154,4.143
	c-0.695,2.566-0.172,4.963,0.625,5.158c0,0-0.494,0.664-1.492,0.393C263.057,327.134,261.926,324.224,262.738,321.249z"/>
<path fill="none" stroke="#FFFFFF" stroke-width="2.8346" stroke-linecap="round" d="M262.893,320.403
	c-0.52-0.15-0.631-0.219-1.109-0.543c-0.486-0.332-0.885-0.719-1.205-1.145"/>
<path fill="none" stroke="#FFFFFF" stroke-width="2.8346" d="M311.821,264.46c0.81-0.621,1.837-1.121,3-1.414
	c2.956-0.736,6.233,0.436,6.623,1.969c0.044,0.197,0.627,0.164,0.677,0.373c0.051,0.199-0.48,0.441-0.43,0.639
	c0.391,1.538-1.957,4.113-4.916,4.854c-1.159,0.291-2.297,0.334-3.302,0.168"/>
<path fill="none" stroke="#FFFFFF" stroke-width="2.8346" stroke-linejoin="round" d="M308.123,268.874
	c-0.752-2.988,0.449-5.869,3.135-6.541c0.994-0.252,1.468,0.418,1.468,0.418c-0.795,0.184-1.366,2.568-0.725,5.156
	c0.649,2.578,2.276,4.412,3.067,4.193c0,0-0.105,0.82-1.108,1.072C311.277,273.851,308.869,271.866,308.123,268.874z"/>
<path fill="none" stroke="#FFFFFF" stroke-width="2.8346" stroke-linecap="round" d="M307.843,268.061
	c-0.526,0.122-0.657,0.116-1.233,0.067c-0.588-0.051-1.123-0.193-1.61-0.408"/>
<path fill="none" stroke="#FFFFFF" stroke-width="2.8346" d="M285.296,138.974c-0.928-0.427-2.039-0.689-3.238-0.717
	c-3.046-0.065-5.984,1.799-6.025,3.382c0,0.202-0.576,0.297-0.577,0.513c-0.005,0.204,0.566,0.324,0.56,0.528
	c-0.041,1.586,2.816,3.58,5.865,3.648c1.195,0.028,2.313-0.18,3.259-0.564"/>
<path fill="none" stroke="#FFFFFF" stroke-width="2.8346" stroke-linejoin="round" d="M289.877,142.463
	c0.074-3.08-1.733-5.625-4.502-5.689c-1.025-0.027-1.338,0.733-1.338,0.733c0.814,0.004,1.897,2.203,1.845,4.869
	c-0.064,2.656-1.247,4.805-2.066,4.767c0,0,0.283,0.776,1.316,0.799C287.896,148.012,289.81,145.545,289.877,142.463z"/>
<path fill="none" stroke="#FFFFFF" stroke-width="2.8346" stroke-linecap="round" d="M289.97,141.607
	c0.541,0.002,0.666-0.03,1.22-0.206c0.56-0.179,1.052-0.436,1.479-0.753"/>
<path fill="none" stroke="#FFFFFF" stroke-width="2.8346" d="M307.011,196.788c-0.594-0.83-1.43-1.609-2.455-2.23
	c-2.613-1.567-6.09-1.409-6.909-0.054c-0.101,0.175-0.649-0.029-0.759,0.159c-0.105,0.174,0.332,0.561,0.225,0.735
	c-0.822,1.356,0.668,4.507,3.281,6.079c1.023,0.617,2.098,0.99,3.109,1.126"/>
<path fill="none" stroke="#FFFFFF" stroke-width="2.8346" stroke-linejoin="round" d="M309.255,202.091
	c1.592-2.637,1.287-5.744-1.084-7.173c-0.877-0.533-1.524-0.028-1.524-0.028c0.704,0.407,0.554,2.854-0.817,5.143
	c-1.375,2.273-3.467,3.552-4.16,3.112c0,0-0.139,0.814,0.746,1.347C304.782,205.926,307.667,204.733,309.255,202.091z"/>
<path fill="none" stroke="#FFFFFF" stroke-width="2.8346" stroke-linecap="round" d="M309.759,201.395
	c0.47,0.271,0.593,0.304,1.162,0.425c0.576,0.123,1.129,0.145,1.658,0.082"/>
<path fill="none" stroke="#FFFFFF" stroke-width="2.8346" d="M298.731,129.41c-0.108-1.016,0.001-2.152,0.357-3.297
	c0.914-2.907,3.621-5.094,5.133-4.625c0.191,0.064,0.468-0.451,0.672-0.383c0.195,0.061,0.125,0.639,0.32,0.699
	c1.515,0.469,2.49,3.815,1.578,6.725c-0.357,1.141-0.912,2.134-1.578,2.906"/>
<path fill="none" stroke="#FFFFFF" stroke-width="2.8346" stroke-linejoin="round" d="M300.569,134.867
	c-2.941-0.916-4.773-3.444-3.947-6.086c0.303-0.981,1.123-1.033,1.123-1.033c-0.258,0.773,1.479,2.504,4.021,3.306
	c2.537,0.789,4.951,0.358,5.178-0.431c0,0,0.645,0.517,0.336,1.504C306.46,134.769,303.511,135.791,300.569,134.867z"/>
<path fill="none" stroke="#FFFFFF" stroke-width="2.8346" stroke-linecap="round" d="M299.73,134.681
	c-0.172,0.513-0.243,0.621-0.587,1.088c-0.35,0.475-0.75,0.858-1.188,1.162"/>
<path fill="none" stroke="#FFFFFF" stroke-width="2.8346" d="M322.688,195.495c0.404-0.938,1.058-1.874,1.931-2.697
	c2.224-2.082,5.656-2.657,6.743-1.506c0.135,0.15,0.628-0.164,0.773-0.004c0.141,0.149-0.205,0.618-0.064,0.767
	c1.09,1.152,0.295,4.545-1.93,6.631c-0.869,0.821-1.843,1.411-2.802,1.757"/>
<path fill="none" stroke="#FFFFFF" stroke-width="2.8346" stroke-linejoin="round" d="M321.607,201.149
	c-2.112-2.242-2.466-5.344-0.448-7.238c0.745-0.706,1.484-0.349,1.484-0.349c-0.604,0.547,0.059,2.906,1.88,4.854
	c1.822,1.936,4.137,2.744,4.722,2.168c0,0,0.307,0.768-0.446,1.476C326.786,203.96,323.716,203.399,321.607,201.149z"/>
<path fill="none" stroke="#FFFFFF" stroke-width="2.8346" stroke-linecap="round" d="M320.967,200.577
	c-0.401,0.362-0.517,0.422-1.045,0.658c-0.537,0.242-1.074,0.379-1.604,0.43"/>
<path fill="#FFFFFF" d="M156.709,336.527c13.537,2.156,11.709,1.01,11.712,1.012c0.005,0.002,1.964-0.539-11.376-2.656
	c-13.376-2.346-31.206-9.979-31.206-9.865C125.701,325.174,143.062,334.119,156.709,336.527"/>
<path fill="none" stroke="#FFFFFF" stroke-width="1.4" d="M156.709,336.527c13.537,2.156,11.709,1.01,11.712,1.012
	c0.005,0.002,1.964-0.539-11.376-2.656c-13.376-2.346-31.206-9.979-31.206-9.865C125.701,325.174,143.062,334.119,156.709,336.527z"
	/>
<path fill="#FFFFFF" d="M93.449,303.717c10.097,9.252,9.552,6.855,9.415,7.021c0.143-0.16,1.689,0.875-8.259-8.246
	c-10.129-8.992-21.357-24.703-21.462-24.703C72.845,277.902,83.128,294.525,93.449,303.717"/>
<path fill="none" stroke="#FFFFFF" stroke-width="1.4" d="M93.449,303.717c10.097,9.252,9.552,6.855,9.415,7.021
	c0.143-0.16,1.689,0.875-8.259-8.246c-10.129-8.992-21.357-24.703-21.462-24.703C72.845,277.902,83.128,294.525,93.449,303.717z"/>
<path fill="#FFFFFF" d="M58.313,247.67c4.686,12.881,4.866,10.695,4.845,10.709c0.022-0.004,1.375,1.471-3.243-11.221
	c-4.471-12.816-6.441-32.04-6.673-32.04C52.991,215.079,53.767,234.59,58.313,247.67"/>
<path fill="none" stroke="#FFFFFF" stroke-width="1.4" d="M58.313,247.67c4.686,12.881,4.866,10.695,4.845,10.709
	c0.022-0.004,1.375,1.471-3.243-11.221c-4.471-12.816-6.441-32.04-6.673-32.04C52.991,215.079,53.767,234.59,58.313,247.67z"/>
<path fill="#FFFFFF" d="M55.043,181.189c-2.531,13.471-0.818,11.731-1.013,11.708c0.19,0.032,0.161,1.912,2.659-11.366
	c2.317-13.364,10.172-30.966,9.964-31.174C66.402,150.158,57.428,167.553,55.043,181.189"/>
<path fill="none" stroke="#FFFFFF" stroke-width="1.4" d="M55.043,181.189c-2.531,13.471-0.818,11.731-1.013,11.708
	c0.19,0.032,0.161,1.912,2.659-11.366c2.317-13.364,10.172-30.966,9.964-31.174C66.402,150.158,57.428,167.553,55.043,181.189z"/>
<path fill="#FFFFFF" d="M84.806,121.994c-8.654,10.629-6.456,9.824-6.559,9.755c0.095,0.077-0.699,1.819,7.832-8.656
	c8.586-10.502,23.645-22.675,23.796-22.48C110.033,100.77,93.58,111.291,84.806,121.994"/>
<path fill="none" stroke="#FFFFFF" stroke-width="1.4" d="M84.806,121.994c-8.654,10.629-6.456,9.824-6.559,9.755
	c0.095,0.077-0.699,1.819,7.832-8.656c8.586-10.502,23.645-22.675,23.796-22.48C110.033,100.77,93.58,111.291,84.806,121.994z"/>
<path fill="none" stroke="#FFFFFF" stroke-width="3.4016" d="M160.928,336.418c-0.029-0.51,0.629-7.17-2.287-9.043
	c-2.564-1.631-2.898,2.941-4.493,2.605c-1.843-0.414-1.892-2.023-2.277-4.637c-0.255-1.563-0.484-5.117-3.769-6.051
	c-4.444-1.256-2.889,5.568-5.642,5.781c-2.461,0.207-2.185-3.709-2.201-6.383c-0.019-4.531-1.945-7.295-6.377-6.684
	c-5.035,0.424-0.552,8.424-2.834,9.363c-2.143,0.887-3.593-0.512-4.871-2.855c-2.75-4.949-8.225-4.834-11.394-0.076
	c-3.25,4.891-0.248,10.52,6.078,10.08c2.86-0.18,4.736,0.414,5.567,2.623c1.018,2.746-9.178,3.045-5.768,7.922
	c3.264,4.256,7.822,3.951,11.134,0.912c2.087-1.91,4.394-4.555,6.443-3.018c2.422,1.848-3.791,6.223,1.588,8.061
	c4.071,1.387,6.336-1.387,7.401-2.533c1.761-1.863,2.644-3.443,4.634-2.996c1.71,0.365-0.052,4.637,3.388,4.275
	C159.165,343.354,160.725,336.879,160.928,336.418z"/>
<path fill="none" stroke="#FFFFFF" stroke-width="3.4016" d="M100.392,308.32c0.217-0.445,3.963-5.803,2.273-8.688
	c-1.436-2.592-3.845,1.078-5.018-0.004c-1.329-1.287-0.528-2.762,0.332-5.121c0.53-1.453,1.926-4.496-0.468-6.838
	c-3.028-3.361-5.095,3.344-7.46,2.127c-2.091-1.102-0.171-4.16,1.096-6.457c1.954-3.738,1.896-7.23-2.183-8.828
	c-4.669-1.938-4.391,6.875-6.876,6.646c-2.223-0.291-2.943-2.076-2.987-4.646c0.279-5.703-4.593-8.148-9.649-5.545
	c-5.036,2.59-5.018,8.771,0.329,11.568c2.603,1.164,4.072,2.465,3.694,4.779c-0.354,2.773-9.474-1.66-8.728,4.033
	c0.756,5.201,4.521,7.313,8.995,6.146c2.693-0.635,6.112-1.951,7.017,0.441c1.094,2.818-6.167,3.467-2.629,7.764
	c2.839,3.094,6.213,1.703,7.672,1.232c2.457-0.811,3.897-1.666,5.332-0.275c1.259,1.158-2.36,4.041,0.774,5.346
	C95.544,313.414,99.996,308.621,100.392,308.32z"/>
<path fill="none" stroke="#FFFFFF" stroke-width="3.4016" d="M61.895,255.043c0.411-0.285,6.313-3.143,6.395-6.537
	c0.06-2.98-3.934-0.92-4.463-2.424c-0.589-1.756,0.729-2.617,2.694-4.27c1.177-1.014,4.032-3.021,3.141-6.246
	c-1.211-4.357-6.125,0.436-7.705-1.757c-1.45-1.946,1.951-3.718,4.188-5.101c3.753-2.334,5.187-5.371,2.294-8.752
	c-2.957-3.991-7.259,3.85-9.21,2.421c-1.944-1.324-1.438-3.26-0.133-5.531c2.856-4.839-0.286-9.354-5.834-9.554
	c-5.794-0.201-8.715,5.185-5.242,10.244c1.614,2.294,1.998,4.168,0.685,5.985c-1.771,2.251-7.323-6.093-9.626-0.758
	c-1.771,4.892,0.708,8.551,4.959,9.761c2.652,0.768,6.048,1.34,5.832,3.832c-0.312,2.969-7.133,0.016-5.932,5.451
	c0.917,4.109,4.388,4.586,5.89,4.891c2.477,0.51,4.251,0.438,4.885,2.334c0.566,1.615-3.9,2.328-1.85,5.021
	C55.203,257.119,61.408,255.109,61.895,255.043z"/>
<path fill="none" stroke="#FFFFFF" stroke-width="3.4016" d="M54.523,189.775c0.554-0.041,6.868,0.307,8.67-2.608
	c1.543-2.565-2.958-2.713-2.665-4.282c0.349-1.819,1.979-1.917,4.443-2.416c1.515-0.312,4.977-0.679,5.735-3.938
	c1.047-4.399-5.623-2.623-5.851-5.28c-0.111-2.344,3.521-2.297,6.161-2.41c4.279-0.258,7.048-2.193,6.347-6.48
	c-0.792-4.993-8.152-0.157-9.257-2.395c-0.883-2.032,0.156-3.63,2.469-4.94c4.916-2.793,4.426-8.237-0.333-11.138
	c-4.935-3.001-10.166,0.25-9.668,6.33c0.224,2.759-0.012,4.742-2.214,5.613c-2.549,1.148-3.535-8.954-7.997-5.342
	c-4.108,3.341-3.767,7.727-0.511,10.909c1.929,1.958,4.815,4.182,3.206,6.19c-1.804,2.414-6.277-3.475-7.857,1.861
	c-1.17,4.045,1.641,6.154,2.811,7.153c1.972,1.667,3.497,2.457,3.119,4.419c-0.314,1.682-4.554,0.129-4.112,3.472
	C47.494,188.295,54.121,189.602,54.523,189.775z"/>
<path fill="none" stroke="#FFFFFF" stroke-width="3.4016" d="M80,129.028c0.454,0.198,5.897,3.683,8.871,2.001
	c2.579-1.503-1.269-3.832-0.256-5.066c1.152-1.451,2.698-0.673,5.106,0.109c1.468,0.464,4.654,1.826,6.879-0.683
	c3.136-3.265-3.574-4.989-2.47-7.418c1.024-2.125,4.161-0.325,6.512,0.852c3.825,1.823,7.343,1.656,8.704-2.579
	c1.74-4.75-7.036-4.098-6.901-6.581c0.157-2.29,1.928-3.061,4.594-3.072c5.568-0.175,7.914-4.977,5.121-9.906
	c-2.803-4.945-9.078-4.845-11.514,0.836c-1.157,2.511-2.411,4.01-4.696,3.781c-2.791-0.251,1.251-9.561-4.397-8.58
	c-5.092,1.056-7.079,4.873-5.752,9.277c0.739,2.661,2.187,6.022-0.175,7.014c-2.754,1.222-3.766-6.079-7.813-2.27
	c-2.958,2.986-1.526,6.21-0.988,7.658c0.891,2.406,1.758,3.775,0.51,5.335c-1.085,1.324-4.026-2.11-5.254,1.039
	C74.661,124.344,79.685,128.643,80,129.028z"/>
<path fill="none" stroke="#FFFFFF" stroke-width="3.4016" d="M207.548,336.418c0.029-0.51-0.629-7.17,2.287-9.043
	c2.564-1.631,2.898,2.941,4.493,2.605c1.843-0.414,1.892-2.023,2.277-4.637c0.255-1.563,0.483-5.117,3.769-6.051
	c4.444-1.256,2.889,5.568,5.642,5.781c2.461,0.207,2.186-3.709,2.201-6.383c0.02-4.531,1.945-7.295,6.377-6.684
	c5.035,0.424,0.554,8.424,2.834,9.363c2.144,0.887,3.595-0.512,4.871-2.855c2.75-4.949,8.226-4.834,11.395-0.076
	c3.25,4.891,0.248,10.52-6.078,10.08c-2.86-0.18-4.736,0.414-5.567,2.623c-1.018,2.746,9.178,3.045,5.769,7.922
	c-3.265,4.256-7.822,3.951-11.135,0.912c-2.087-1.91-4.394-4.555-6.442-3.018c-2.422,1.848,3.791,6.223-1.588,8.061
	c-4.071,1.387-6.336-1.387-7.401-2.533c-1.761-1.863-2.644-3.443-4.634-2.996c-1.71,0.365,0.052,4.637-3.39,4.275
	C209.311,343.354,207.751,336.879,207.548,336.418z"/>
<path fill="none" stroke="#FFFFFF" stroke-width="3.4016" d="M268.084,308.32c-0.217-0.445-3.963-5.803-2.274-8.688
	c1.438-2.592,3.847,1.078,5.02-0.004c1.329-1.287,0.528-2.762-0.332-5.121c-0.53-1.453-1.926-4.496,0.468-6.838
	c3.028-3.361,5.095,3.344,7.46,2.127c2.091-1.102,0.171-4.16-1.096-6.457c-1.954-3.738-1.896-7.23,2.183-8.828
	c4.669-1.938,4.391,6.875,6.876,6.646c2.223-0.291,2.943-2.076,2.987-4.646c-0.279-5.703,4.593-8.148,9.649-5.545
	c5.035,2.59,5.018,8.771-0.329,11.568c-2.603,1.164-4.072,2.465-3.694,4.779c0.354,2.773,9.474-1.66,8.727,4.033
	c-0.755,5.201-4.521,7.313-8.994,6.146c-2.693-0.635-6.112-1.951-7.017,0.441c-1.094,2.818,6.167,3.467,2.629,7.764
	c-2.839,3.094-6.213,1.703-7.672,1.232c-2.457-0.811-3.897-1.666-5.332-0.275c-1.259,1.158,2.36,4.041-0.774,5.346
	C272.932,313.414,268.48,308.621,268.084,308.32z"/>
<path fill="none" stroke="#FFFFFF" stroke-width="3.4016" d="M306.581,255.043c-0.411-0.285-6.313-3.143-6.396-6.537
	c-0.059-2.98,3.935-0.92,4.464-2.424c0.589-1.756-0.729-2.617-2.694-4.27c-1.177-1.014-4.032-3.021-3.14-6.246
	c1.21-4.357,6.125,0.436,7.703-1.757c1.451-1.946-1.95-3.718-4.188-5.101c-3.753-2.334-5.188-5.371-2.294-8.752
	c2.957-3.991,7.259,3.85,9.21,2.421c1.944-1.324,1.438-3.26,0.133-5.531c-2.856-4.839,0.286-9.354,5.834-9.554
	c5.794-0.201,8.715,5.185,5.242,10.244c-1.614,2.294-1.998,4.168-0.685,5.985c1.771,2.251,7.323-6.093,9.625-0.758
	c1.771,4.892-0.706,8.551-4.957,9.761c-2.653,0.768-6.049,1.34-5.833,3.832c0.312,2.969,7.133,0.016,5.932,5.451
	c-0.917,4.109-4.388,4.586-5.89,4.891c-2.477,0.51-4.252,0.438-4.885,2.334c-0.566,1.615,3.9,2.328,1.85,5.021
	C313.273,257.119,307.068,255.109,306.581,255.043z"/>
<path fill="none" stroke="#FFFFFF" stroke-width="3.4016" d="M313.953,189.775c-0.554-0.041-6.868,0.307-8.67-2.608
	c-1.543-2.565,2.958-2.713,2.665-4.282c-0.349-1.819-1.979-1.917-4.443-2.416c-1.515-0.312-4.977-0.679-5.736-3.938
	c-1.046-4.399,5.624-2.623,5.852-5.28c0.111-2.344-3.521-2.297-6.161-2.41c-4.279-0.258-7.048-2.193-6.347-6.48
	c0.792-4.993,8.152-0.157,9.257-2.395c0.883-2.032-0.156-3.63-2.469-4.94c-4.916-2.793-4.426-8.237,0.333-11.138
	c4.935-3.001,10.166,0.25,9.668,6.33c-0.224,2.759,0.012,4.742,2.214,5.613c2.549,1.148,3.535-8.954,7.997-5.342
	c4.108,3.341,3.767,7.727,0.511,10.909c-1.929,1.958-4.815,4.182-3.206,6.19c1.804,2.414,6.277-3.475,7.857,1.861
	c1.17,4.045-1.641,6.154-2.811,7.153c-1.972,1.667-3.497,2.457-3.119,4.419c0.314,1.682,4.554,0.129,4.112,3.472
	C320.982,188.295,314.355,189.602,313.953,189.775z"/>
<path fill="none" stroke="#FFFFFF" stroke-width="3.4016" d="M288.476,129.028c-0.454,0.198-5.897,3.683-8.872,2.001
	c-2.578-1.503,1.27-3.832,0.257-5.066c-1.152-1.451-2.698-0.673-5.106,0.109c-1.468,0.464-4.654,1.826-6.879-0.683
	c-3.136-3.265,3.574-4.989,2.47-7.418c-1.024-2.125-4.16-0.325-6.512,0.852c-3.825,1.823-7.343,1.656-8.704-2.579
	c-1.74-4.75,7.036-4.098,6.901-6.581c-0.157-2.29-1.929-3.061-4.595-3.072c-5.567-0.175-7.913-4.977-5.12-9.906
	c2.803-4.945,9.077-4.845,11.514,0.836c1.157,2.511,2.411,4.01,4.696,3.781c2.791-0.251-1.251-9.561,4.397-8.58
	c5.092,1.056,7.079,4.873,5.752,9.277c-0.74,2.661-2.187,6.022,0.175,7.014c2.753,1.222,3.766-6.079,7.813-2.27
	c2.958,2.986,1.527,6.21,0.988,7.658c-0.891,2.406-1.758,3.775-0.51,5.335c1.085,1.324,4.026-2.11,5.255,1.039
	C293.815,124.344,288.791,128.643,288.476,129.028z"/>
<path fill="#FFFFFF" d="M211.767,336.527c-13.536,2.156-11.708,1.01-11.712,1.012c-0.005,0.002-1.964-0.539,11.376-2.656
	c13.376-2.346,31.206-9.979,31.206-9.865C242.775,325.174,225.414,334.119,211.767,336.527"/>
<path fill="none" stroke="#FFFFFF" stroke-width="1.4" d="M211.767,336.527c-13.536,2.156-11.708,1.01-11.712,1.012
	c-0.005,0.002-1.964-0.539,11.376-2.656c13.376-2.346,31.206-9.979,31.206-9.865C242.775,325.174,225.414,334.119,211.767,336.527z"
	/>
<path fill="#FFFFFF" d="M275.027,303.717c-10.098,9.252-9.553,6.855-9.415,7.021c-0.144-0.16-1.689,0.875,8.259-8.246
	c10.129-8.992,21.356-24.703,21.462-24.703C295.631,277.902,285.348,294.525,275.027,303.717"/>
<path fill="none" stroke="#FFFFFF" stroke-width="1.4" d="M275.027,303.717c-10.098,9.252-9.553,6.855-9.415,7.021
	c-0.144-0.16-1.689,0.875,8.259-8.246c10.129-8.992,21.356-24.703,21.462-24.703C295.631,277.902,285.348,294.525,275.027,303.717z"
	/>
<path fill="#FFFFFF" d="M310.163,247.67c-4.687,12.881-4.866,10.695-4.845,10.709c-0.022-0.004-1.375,1.471,3.242-11.221
	c4.472-12.816,6.442-32.04,6.674-32.04C315.485,215.079,314.709,234.59,310.163,247.67"/>
<path fill="none" stroke="#FFFFFF" stroke-width="1.4" d="M310.163,247.67c-4.687,12.881-4.866,10.695-4.845,10.709
	c-0.022-0.004-1.375,1.471,3.242-11.221c4.472-12.816,6.442-32.04,6.674-32.04C315.485,215.079,314.709,234.59,310.163,247.67z"/>
<path fill="#FFFFFF" d="M313.433,181.189c2.531,13.471,0.818,11.731,1.013,11.708c-0.19,0.032-0.161,1.912-2.659-11.366
	c-2.317-13.364-10.172-30.966-9.964-31.174C302.074,150.158,311.048,167.553,313.433,181.189"/>
<path fill="none" stroke="#FFFFFF" stroke-width="1.4" d="M313.433,181.189c2.531,13.471,0.818,11.731,1.013,11.708
	c-0.19,0.032-0.161,1.912-2.659-11.366c-2.317-13.364-10.172-30.966-9.964-31.174C302.074,150.158,311.048,167.553,313.433,181.189z
	"/>
<path fill="#FFFFFF" d="M283.67,121.994c8.654,10.629,6.456,9.824,6.558,9.755c-0.094,0.077,0.7,1.819-7.831-8.656
	c-8.587-10.502-23.645-22.675-23.797-22.48C258.442,100.77,274.896,111.291,283.67,121.994"/>
<path fill="none" stroke="#FFFFFF" stroke-width="1.4" d="M283.67,121.994c8.654,10.629,6.456,9.824,6.558,9.755
	c-0.094,0.077,0.7,1.819-7.831-8.656c-8.587-10.502-23.645-22.675-23.797-22.48C258.442,100.77,274.896,111.291,283.67,121.994z"/>
</svg>
